<?xml version="1.0"?>
<svg width="1000.0000000000001" height="400" xmlns="http://www.w3.org/2000/svg" xmlns:svg="http://www.w3.org/2000/svg" xmlns:xlink="http://www.w3.org/1999/xlink">
 <!-- Created with SVG-edit - https://github.com/SVG-Edit/svgedit-->
 <defs>
  <symbol id="svg_1" viewBox="1910.3 169.60000000000002 100.50000000000023 521.6" xmlns="http://www.w3.org/2000/svg">
   <path d="m1910.3,691.2l0,-16.9l9.9,0l0,-5.2l4.9,0l0,-4.3l5.2,0l0,-58.3l5.9,0l0,-63.5l3.3,0l0,-76.7l6,0l-0.1,-100l4.9,0l0,-39.5l2,0l0,-23.2l1.9,0l0,-48.4l1.8,0l0,-36.9l2.3,0l0,-17.1l0.7,0l0,-31.6l2.3,0l0,37.4l0.8,0l0,24.6l0.6,0l0,11.2l1.8,0l0,36.4l1.5,0l0,36l2.2,0l0.1,35.3l2.2,0l0.2,53.3l4.6,0l0,89l6,-0.1l0,73l4.1,0l0,57.3l4.8,0l0,41.8l4.9,0l0,4.5l6.3,0l0,4.4l9.4,0l0,17.5l-100.5,0z" fill="#000000"/>
  </symbol>
  <symbol id="svg_4" viewBox="3826.5 312.8 47.80000000000018 377.2" xmlns="http://www.w3.org/2000/svg">
   <path d="m3826.5,689.8l4.4,-97.6l0,-196.5l4.8,-54.7l14.2,-28.2l15,27.6l4.8,55l0,196.8l4.6,97.8l-47.8,-0.2z" fill="#000000"/>
  </symbol>
  <symbol id="svg_7" viewBox="3437.9 292.6 71.69999999999982 398" xmlns="http://www.w3.org/2000/svg">
   <path d="m3505.6,685.9l0,4.7l-67.7,0l0,-62.1c1,-15.4 2.1,-30.8 3.1,-46.3c0.3,-3.8 0.5,-7.6 0.8,-11.4l2.2,-30.5l1.7,-24.1c0.6,-8.8 1.2,-17.7 1.9,-26.5l0.5,-15.6l1,-32l0.9,-31.3l0.8,-36.5l0.1,-33.7c0,-9 -0.1,-18.1 -0.1,-27.1l0.9,0l0.7,-20.9l4,0c3.5,0.4 5.4,1.2 7.1,2s3.2,1.7 5.1,3.2c1.9,1.5 4.2,3.6 7.4,8.4l0.8,1.7l3.1,69l1,27.8l0.5,30.5l0.5,38.2c0,12.2 -0.1,24.3 -0.1,36.5c0,16.9 0.1,33.8 0.1,50.8c0.3,16.3 0.6,32.6 0.9,49c0.8,17.5 1.7,34.9 2.5,52.4l18.7,0c0,0.2 0.1,0.5 0.1,0.7l2.8,22.3l2.7,0l0,1.1l-4,-0.3l0,0z" fill="#000000"/>
  </symbol>
  <symbol id="svg_10" viewBox="3952.1999999999994 340.7000000000001 45.900000000000546 349.99999999999994" xmlns="http://www.w3.org/2000/svg">
   <path d="m3998.1,690.7c0,-120 -0.3,-127.7 -0.8,-139c-0.5,-11.5 -1.4,-26.7 -2.3,-40.9c-1,-14.2 -2.1,-27.4 -3,-39.4s-1.7,-22.6 -3.1,-37.7c-1.3,-15.1 -3.2,-34.8 -8.4,-93l-5.4,0l-1.4,25l-4.2,0c0.3,-3.8 0.7,-9.6 1.6,-25l-1.5,0c-1.8,24.1 -4,45.7 -5.6,63s-2.7,30.3 -3.7,42.2c-1,11.9 -1.9,22.6 -2.8,34.5c-0.9,11.9 -1.8,24.9 -2.4,34.8c-0.6,9.9 -0.9,16.7 -1.3,23.3c-0.3,6.6 -0.7,13.1 -1,19.7c-0.3,6.6 -0.4,13.3 -0.5,20.5s-0.1,15 -0.1,27.3s0.1,29.2 0,84.7l45.9,0z" fill="#000000"/>
  </symbol>
  <symbol id="svg_13" viewBox="2440.2999999999993 312.4000000000002 59.59999999999991 378.5999999999998" xmlns="http://www.w3.org/2000/svg">
   <path d="m2470.5,322.6c2.4,0.1 4.6,-1.4 5.5,-3.6s0.4,-4.8 -1.3,-6.5c3.6,1.9 5.5,6.1 4.4,10.1c-0.9,3.5 -3.8,6 -7.3,6.5l0,2.6l0.6,0l0,2.3l2.1,0l0,2.2l-1.2,0l1.1,35.8l-0.7,1.1c0,0 4.3,1.5 5.1,6.7c0,0 0.7,3.3 -1.9,6.4l0,4.1l6.7,0l0,9.2l2.6,0l0.7,-1.4c0,0 -1.5,-0.5 -1.5,-2.2s1.4,-2.2 1.4,-2.2l0.8,-1.4l0.9,1.3c0,0 1.7,0.5 1.7,2.3c0,0 0.1,1.5 -1.4,2.2l0.9,1.6l1.6,0l0,38.1l4.5,0l0,7.3l-0.4,0l0,8.6l-1,0l0,7.8l5.5,0l0,229.5l-59.6,0l0,-229.6l6.6,0l0,-7.9l-1.2,0l0,-8.3l-0.9,0l0,-7.2l4.5,0l0,-38.4l1.5,0l0.9,-1.4c0,0 -1.2,-0.6 -1.2,-2.1s1.4,-2.2 1.4,-2.2l0.8,-1.4l0.9,1.3c0,0 1.7,0.5 1.7,2.3c0,1.7 -1.5,2.2 -1.5,2.2l0.9,1.3l2.6,0l0,-9l5.9,0l0,-4.8c0,0 -1.5,-2.1 -1.5,-4.9s1.6,-6.3 5.3,-7.7l-0.9,-1l1.4,-35.7l-1.4,0l0,-2.4l1.9,0l0,-2.5l0.8,0l0,-2.4c-3.6,-0.5 -6.6,-3.3 -7.3,-6.9c-0.9,-4 1.2,-8.1 4.9,-9.9c-1.8,1.6 -2.4,4.1 -1.6,6.4c1.1,2.2 3.2,3.7 5.7,3.8" fill="#000000"/>
  </symbol>
  <symbol id="svg_38" viewBox="178 449.4 80.19999999999993 241.39999999999998" xmlns="http://www.w3.org/2000/svg">
   <path d="m178,690.8l0,-16.5l10.5,0l0,-33.4l7.1,0l0,-8l1.1,0l0,-13.5l3.4,0l0,-93.8l1.1,0l0,-20.2l2.7,0l0,-9.8l1.1,0l0,-8.4l2.9,0l0,-2.8l3.4,0l0,-0.6l0.6,0l0,-1.1l0.7,0l0,-1.1l1.1,0l0,-4.3l0.5,0l0,-4.7l0.7,0l0,-14.2l-0.8,0l0,-0.5l-0.4,0l0,-0.6l1.2,0l0,-0.6l-0.7,0l0,-1.2l0.5,0l0,-0.7l1.1,0l0,-2.3l-0.7,0l0,-1.2l0.8,0l0,-0.6l0.8,-0.9l1.4,-0.4l1.6,0.4l0.6,0.9l0,0.6l0.8,0l0,1.2l-0.7,0l0,2.3l1.1,0l0,0.7l0.5,0l0,1.2l-0.7,0l0,0.6l1.2,0l0,0.6l-0.4,0l0,0.5l-0.8,0l0,14.2l0.7,0l0,4.7l0.5,0l0,4.3l1.1,0l0,1.1l0.7,0l0,1.1l0.6,0l0,0.6l3.4,0l0,2.8l2.9,0l0,8.4l1.1,0l0,9.8l2.7,0l0,20.2l1.1,0l0,93.8l3.4,0l0,13.5l1.1,0l0,8l7.1,0l0,33.4l10.5,0l0,16.5l-80.2,0z" fill="#d3d3d3"/>
  </symbol>
 </defs>
 <g class="layer">
  <title>Layer 1</title>
  <use id="svg_39" transform="matrix(0.446367 0 0 0.446367 502.519 -381.169)" x="-1517.811519" xlink:href="#svg_38" y="1349.157551"/>
  <g id="svg_3"/>
  <g id="svg_6"/>
  <g id="svg_9"/>
  <g id="svg_12"/>
  <g id="svg_15"/>
  <line fill="none" id="svg_17" stroke="#b2b2b2" stroke-width="0.5" x1="-61.302643" x2="1052.093874" y1="177.410056" y2="177.410056"/>
  <line fill="none" id="svg_23" stroke="#b2b2b2" stroke-width="0.5" x1="-48.75626" x2="1064.640256" y1="105.369789" y2="105.369789"/>
  <line fill="none" id="svg_22" stroke="#b2b2b2" stroke-width="0.5" x1="-56.30222" x2="1057.094297" y1="29.149628" y2="29.149628"/>
  <text fill="#b2b2b2" font-family="serif" font-size="24" id="svg_24" stroke="#cccccc" stroke-width="0" text-anchor="middle" transform="matrix(0.462836 0 0 0.462836 0.323503 120.01)" x="39.079986" xml:space="preserve" y="278.397422">1000 ft</text>
  <text fill="#b2b2b2" font-family="serif" font-size="24" id="svg_25" stroke="#cccccc" stroke-width="0" text-anchor="middle" transform="matrix(0.462836 0 0 0.462836 0.323503 120.01)" x="39.318411" xml:space="preserve" y="113.13959">1500 ft</text>
  <text fill="#b2b2b2" font-family="serif" font-size="24" id="svg_26" stroke="#cccccc" stroke-width="0" style="cursor: move;" text-anchor="middle" transform="matrix(0.462836 0 0 0.462836 0.323503 120.01)" x="39.314653" xml:space="preserve" y="-42.298731">2000 ft</text>
  <text fill="#b2b2b2" font-family="serif" font-size="24" id="svg_27" stroke="#cccccc" stroke-width="0" style="cursor: move;" text-anchor="middle" transform="matrix(0.462836 0 0 0.462836 0.323503 120.01)" x="39.314653" xml:space="preserve" y="-207.063336">2500 ft</text>
  <line fill="none" id="svg_28" stroke="#b2b2b2" stroke-width="0.5" x1="20.352066" x2="69.000379" y1="255.827328" y2="255.827328"/>
  <line fill="none" id="svg_29" stroke="#b2b2b2" stroke-width="0.5" x1="20.424056" x2="69.072369" y1="210.503575" y2="210.503575"/>
  <line fill="none" id="svg_31" stroke="#b2b2b2" stroke-width="0.5" x1="20.603877" x2="69.25219" y1="163.362254" y2="163.362254"/>
  <line fill="none" id="svg_30" stroke="#b2b2b2" stroke-width="0.5" x1="20.146766" x2="68.795079" y1="120.006451" y2="120.006451"/>
  <line fill="none" id="svg_32" stroke="#b2b2b2" stroke-width="0.5" x1="20.830192" x2="69.478505" y1="73.735701" y2="73.735701"/>
  <text fill="#b2b2b2" font-family="serif" font-size="24" id="svg_33" stroke="#cccccc" stroke-width="0" style="cursor: move;" text-anchor="middle" transform="matrix(1 0 0 1 0 0) matrix(0.462836 0 0 0.462836 0.323503 120.01)" x="139.727769" xml:space="preserve" y="284.432555">300 m</text>
  <text fill="#b2b2b2" font-family="serif" font-size="24" id="svg_34" stroke="#cccccc" stroke-width="0" style="cursor: move;" text-anchor="middle" transform="matrix(1 0 0 1 0 0) matrix(0.462836 0 0 0.462836 0.323503 120.01)" x="139.724584" xml:space="preserve" y="184.948433">400 m</text>
  <text fill="#b2b2b2" font-family="serif" font-size="24" id="svg_35" stroke="#cccccc" stroke-width="0" style="cursor: move;" text-anchor="middle" transform="matrix(1 0 0 1 0 0) matrix(0.462836 0 0 0.462836 0.323503 120.01)" x="138.1733" xml:space="preserve" y="83.913492">500 m</text>
  <text fill="#b2b2b2" font-family="serif" font-size="24" id="svg_36" stroke="#cccccc" stroke-width="0" style="cursor: move;" text-anchor="middle" transform="matrix(1 0 0 1 0 0) matrix(0.462836 0 0 0.462836 0.323503 120.01)" x="139.738898" xml:space="preserve" y="-9.345366">600 m</text>
  <text fill="#b2b2b2" font-family="serif" font-size="24" id="svg_37" stroke="#cccccc" stroke-width="0" style="cursor: move;" text-anchor="middle" transform="matrix(0.462836 0 0 0.462836 0.323503 120.01)" x="138.172027" xml:space="preserve" y="-110.381317">700 m</text>
  <g id="svg_40"/>
  <line fill="none" id="svg_41" stroke="#b2b2b2" stroke-width="0.5" x1="-52.525545" x2="1060.870971" y1="253.669052" y2="253.669052"/>
  <use id="svg_2" transform="matrix(1 0 0 1 0 0) matrix(0.993593 0 0 0.993593 227.593 -588.927)" x="-574.415121" xlink:href="#svg_1" y="594.851348"/>
  <use fill="#7f3f00" id="svg_8" transform="matrix(1 0 0 1 0 0) matrix(0.765356 0 0 0.765356 64.4213 93.8624)" x="-112.068241" xlink:href="#svg_7" y="-0.62344"/>
  <use fill="#ff00ff" id="svg_14" transform="matrix(1 0 0 1 0 0) matrix(0.728273 0 0 0.728273 127.246 108.581)" x="84.757675" xlink:href="#svg_13" y="0.552547"/>
  <use id="svg_5" transform="matrix(1 0 0 1 0 0) matrix(0.725233 0 0 0.725233 313.865 611.86)" x="106.801582" xlink:href="#svg_4" y="-692.019511"/>
  <use id="svg_11" transform="matrix(1 0 0 1 0 0) matrix(0.672782 0 0 0.672782 262.55 129.115)" x="527.539167" xlink:href="#svg_10" y="2.012802"/>
 </g>
</svg>