<svg xmlns="http://www.w3.org/2000/svg" viewBox="0 0 190.918 71.973">
  <path d="M 173.73 71.973 L 170.752 71.973 Q 167.188 71.973 164.038 70.63 Q 160.889 69.288 158.545 66.944 A 17.327 17.327 0 0 1 154.858 61.475 Q 153.516 58.35 153.516 54.786 L 153.516 53.711 L 159.814 53.711 L 159.814 54.786 A 11.002 11.002 0 0 0 160.44 58.515 A 10.417 10.417 0 0 0 160.693 59.156 A 11.417 11.417 0 0 0 163.11 62.72 Q 164.648 64.258 166.675 65.137 A 10.808 10.808 0 0 0 170.826 66.014 A 12.383 12.383 0 0 0 171.045 66.016 L 173.438 66.016 A 11.002 11.002 0 0 0 177.167 65.39 A 10.417 10.417 0 0 0 177.808 65.137 A 11.126 11.126 0 0 0 181.348 62.72 A 11.63 11.63 0 0 0 183.74 59.156 A 10.808 10.808 0 0 0 184.617 55.005 A 12.383 12.383 0 0 0 184.619 54.786 L 184.619 41.211 A 11.002 11.002 0 0 0 183.993 37.482 A 10.417 10.417 0 0 0 183.74 36.841 A 11.63 11.63 0 0 0 181.348 33.277 Q 179.834 31.739 177.808 30.86 A 10.808 10.808 0 0 0 173.657 29.983 A 12.383 12.383 0 0 0 173.437 29.981 L 171.045 29.981 A 11.002 11.002 0 0 0 167.316 30.607 A 10.417 10.417 0 0 0 166.675 30.86 A 11.417 11.417 0 0 0 163.11 33.277 Q 161.572 34.815 160.693 36.841 A 10.808 10.808 0 0 0 159.816 40.992 A 12.383 12.383 0 0 0 159.814 41.211 L 153.516 41.211 L 157.52 0.977 L 187.451 0.977 L 187.451 6.983 L 163.428 6.983 L 161.133 28.516 Q 163.379 26.368 166.357 25.171 A 16.884 16.884 0 0 1 172.328 23.98 A 19.3 19.3 0 0 1 172.754 23.975 L 173.73 23.975 Q 177.295 23.975 180.42 25.318 A 17.327 17.327 0 0 1 185.889 29.004 Q 188.232 31.348 189.575 34.497 Q 190.918 37.647 190.918 41.211 L 190.918 54.786 Q 190.918 58.35 189.575 61.475 A 17.327 17.327 0 0 1 185.889 66.944 A 17.327 17.327 0 0 1 180.42 70.63 Q 177.295 71.973 173.73 71.973 Z M 39.697 6.983 L 22.998 6.983 L 22.998 70.996 L 16.699 70.996 L 16.699 6.983 L 0 6.983 L 0 0.977 L 39.697 0.977 L 39.697 6.983 Z M 125.293 44.092 L 109.424 44.092 L 109.424 70.996 L 103.125 70.996 L 103.125 0.977 L 125.293 0.977 Q 128.857 0.977 132.007 2.32 Q 135.156 3.663 137.5 6.006 Q 139.844 8.35 141.187 11.499 Q 142.529 14.649 142.529 18.213 L 142.529 26.905 Q 142.529 30.469 141.187 33.594 A 17.327 17.327 0 0 1 137.5 39.063 Q 135.156 41.407 132.007 42.749 Q 128.857 44.092 125.293 44.092 Z M 70.898 71.973 L 65.918 71.973 Q 62.354 71.973 59.204 70.63 Q 56.055 69.288 53.711 66.944 A 17.327 17.327 0 0 1 50.024 61.475 Q 48.682 58.35 48.682 54.786 L 48.682 17.188 Q 48.682 13.623 50.024 10.498 A 17.327 17.327 0 0 1 53.711 5.03 Q 56.055 2.686 59.204 1.343 Q 62.354 0 65.918 0 L 70.898 0 Q 74.463 0 77.588 1.343 A 17.327 17.327 0 0 1 83.057 5.03 A 17.327 17.327 0 0 1 86.743 10.498 Q 88.086 13.623 88.086 17.188 L 88.086 54.786 Q 88.086 58.35 86.743 61.475 A 17.327 17.327 0 0 1 83.057 66.944 A 17.327 17.327 0 0 1 77.588 70.63 Q 74.463 71.973 70.898 71.973 Z M 81.787 54.786 L 81.787 17.188 A 11.002 11.002 0 0 0 81.161 13.459 A 10.417 10.417 0 0 0 80.908 12.818 A 11.329 11.329 0 0 0 78.516 9.278 A 11.329 11.329 0 0 0 74.976 6.885 A 10.808 10.808 0 0 0 70.824 6.008 A 12.383 12.383 0 0 0 70.605 6.006 L 66.211 6.006 A 11.002 11.002 0 0 0 62.482 6.632 A 10.417 10.417 0 0 0 61.841 6.885 A 11.63 11.63 0 0 0 58.276 9.278 Q 56.738 10.791 55.859 12.818 A 10.808 10.808 0 0 0 54.982 16.969 A 12.383 12.383 0 0 0 54.98 17.188 L 54.98 54.786 A 11.002 11.002 0 0 0 55.606 58.515 A 10.417 10.417 0 0 0 55.859 59.156 A 11.417 11.417 0 0 0 58.276 62.72 Q 59.814 64.258 61.841 65.137 A 10.808 10.808 0 0 0 65.992 66.014 A 12.383 12.383 0 0 0 66.211 66.016 L 70.605 66.016 A 11.002 11.002 0 0 0 74.335 65.39 A 10.417 10.417 0 0 0 74.976 65.137 A 11.126 11.126 0 0 0 78.516 62.72 A 11.63 11.63 0 0 0 80.908 59.156 A 10.808 10.808 0 0 0 81.785 55.005 A 12.383 12.383 0 0 0 81.787 54.786 Z M 136.23 26.905 L 136.23 18.213 A 11.002 11.002 0 0 0 135.605 14.484 A 10.417 10.417 0 0 0 135.352 13.843 A 11.417 11.417 0 0 0 132.935 10.279 Q 131.396 8.741 129.37 7.862 A 10.808 10.808 0 0 0 125.219 6.985 A 12.383 12.383 0 0 0 125 6.983 L 109.424 6.983 L 109.424 38.086 L 125 38.086 A 11.002 11.002 0 0 0 128.729 37.461 A 10.417 10.417 0 0 0 129.37 37.207 A 11.63 11.63 0 0 0 132.935 34.815 Q 134.473 33.301 135.352 31.275 A 10.808 10.808 0 0 0 136.229 27.124 A 12.383 12.383 0 0 0 136.23 26.905 Z" fill="#08a2d5"/>
</svg>