<svg xmlns="http://www.w3.org/2000/svg" viewBox="3437.9 292.6 71.69999999999982 398">
  <path d="M3505.6,685.9v4.7h-67.7v-62.1c1-15.4,2.1-30.8,3.1-46.3c0.3-3.8,0.5-7.6,0.8-11.4l2.2-30.5l1.7-24.1
					c0.6-8.8,1.2-17.7,1.9-26.5l0.5-15.6l1-32l0.9-31.3l0.8-36.5l0.1-33.7c0-9-0.1-18.1-0.1-27.1h0.9l0.7-20.9h4
					c3.5,0.4,5.4,1.2,7.1,2s3.2,1.7,5.1,3.2c1.9,1.5,4.2,3.6,7.4,8.4l0.8,1.7l3.1,69l1,27.8l0.5,30.5l0.5,38.2
					c0,12.2-0.1,24.3-0.1,36.5c0,16.9,0.1,33.8,0.1,50.8c0.3,16.3,0.6,32.6,0.9,49c0.8,17.5,1.7,34.9,2.5,52.4h18.7
					c0,0.2,0.1,0.5,0.1,0.7l2.8,22.3h2.7v1.1L3505.6,685.9L3505.6,685.9z" fill="#000000"/>
</svg>