<svg xmlns="http://www.w3.org/2000/svg" viewBox="3952.1999999999994 340.7000000000001 45.900000000000546 349.99999999999994">
  <path d="M3998.1,690.7c0-120-0.3-127.7-0.8-139c-0.5-11.5-1.4-26.7-2.3-40.9c-1-14.2-2.1-27.4-3-39.4
					s-1.7-22.6-3.1-37.7c-1.3-15.1-3.2-34.8-8.4-93h-5.4l-1.4,25h-4.2c0.3-3.8,0.7-9.6,1.6-25h-1.5c-1.8,24.1-4,45.7-5.6,63
					s-2.7,30.3-3.7,42.2c-1,11.9-1.9,22.6-2.8,34.5c-0.9,11.9-1.8,24.9-2.4,34.8c-0.6,9.9-0.9,16.7-1.3,23.3
					c-0.3,6.6-0.7,13.1-1,19.7c-0.3,6.6-0.4,13.3-0.5,20.5s-0.1,15-0.1,27.3s0.1,29.2,0,84.7H3998.1z" fill="#000000"/>
</svg>