<svg xmlns="http://www.w3.org/2000/svg" viewBox="2440.2999999999993 312.4000000000002 59.59999999999991 378.5999999999998">
  <path d="M2470.5,322.6c2.4,0.1,4.6-1.4,5.5-3.6s0.4-4.8-1.3-6.5c3.6,1.9,5.5,6.1,4.4,10.1c-0.9,3.5-3.8,6-7.3,6.5
					v2.6h0.6v2.3h2.1v2.2h-1.2l1.1,35.8l-0.7,1.1c0,0,4.3,1.5,5.1,6.7c0,0,0.7,3.3-1.9,6.4v4.1h6.7v9.2h2.6l0.7-1.4
					c0,0-1.5-0.5-1.5-2.2s1.4-2.2,1.4-2.2l0.8-1.4l0.9,1.3c0,0,1.7,0.5,1.7,2.3c0,0,0.1,1.5-1.4,2.2l0.9,1.6h1.6v38.1h4.5v7.3h-0.4
					v8.6h-1v7.8h5.5V691h-59.6V461.4h6.6v-7.9h-1.2v-8.3h-0.9V438h4.5v-38.4h1.5l0.9-1.4c0,0-1.2-0.6-1.2-2.1s1.4-2.2,1.4-2.2
					l0.8-1.4l0.9,1.3c0,0,1.7,0.5,1.7,2.3c0,1.7-1.5,2.2-1.5,2.2l0.9,1.3h2.6v-9h5.9v-4.8c0,0-1.5-2.1-1.5-4.9s1.6-6.3,5.3-7.7
					l-0.9-1l1.4-35.7h-1.4v-2.4h1.9v-2.5h0.8v-2.4c-3.6-0.5-6.6-3.3-7.3-6.9c-0.9-4,1.2-8.1,4.9-9.9c-1.8,1.6-2.4,4.1-1.6,6.4
					C2465.9,321,2468,322.5,2470.5,322.6" fill="#000000"/>
</svg>